<mxfile host="Electron" agent="Mozilla/5.0 (Windows NT 10.0; Win64; x64) AppleWebKit/537.36 (KHTML, like Gecko) draw.io/26.2.2 Chrome/134.0.6998.178 Electron/35.1.2 Safari/537.36" version="26.2.2">
  <diagram name="Page-1" id="zG3NqZBwZe0RXJjB_kZK">
    <mxGraphModel dx="1311" dy="543" grid="1" gridSize="10" guides="1" tooltips="1" connect="1" arrows="1" fold="1" page="1" pageScale="1" pageWidth="850" pageHeight="1100" math="0" shadow="0">
      <root>
        <mxCell id="0" />
        <mxCell id="1" parent="0" />
        <mxCell id="lCDYun2mpixBmXI8MaTH-1" value="High Level Architecture" style="text;html=1;align=center;verticalAlign=middle;whiteSpace=wrap;rounded=0;fontSize=20;fontStyle=1;strokeColor=default;strokeWidth=0;" parent="1" vertex="1">
          <mxGeometry x="272" y="90" width="261.25" height="30" as="geometry" />
        </mxCell>
        <mxCell id="lCDYun2mpixBmXI8MaTH-2" value="" style="rounded=0;whiteSpace=wrap;html=1;fillColor=none;dashed=1;strokeColor=light-dark(#707070, #ededed);" parent="1" vertex="1">
          <mxGeometry x="40" y="150" width="110" height="570" as="geometry" />
        </mxCell>
        <mxCell id="lCDYun2mpixBmXI8MaTH-3" value="Sources" style="rounded=0;whiteSpace=wrap;html=1;fontSize=15;strokeColor=none;" parent="1" vertex="1">
          <mxGeometry x="53.75" y="130" width="82.5" height="30" as="geometry" />
        </mxCell>
        <mxCell id="lCDYun2mpixBmXI8MaTH-4" value="" style="rounded=0;whiteSpace=wrap;html=1;fillColor=none;dashed=1;strokeColor=light-dark(#707070, #ededed);" parent="1" vertex="1">
          <mxGeometry x="180" y="150" width="470" height="570" as="geometry" />
        </mxCell>
        <mxCell id="lCDYun2mpixBmXI8MaTH-5" value="Data Warehouse" style="rounded=0;whiteSpace=wrap;html=1;fontSize=15;strokeColor=none;" parent="1" vertex="1">
          <mxGeometry x="325" y="130" width="120" height="30" as="geometry" />
        </mxCell>
        <mxCell id="lCDYun2mpixBmXI8MaTH-6" value="" style="rounded=0;whiteSpace=wrap;html=1;fillColor=none;dashed=1;strokeColor=light-dark(#707070, #ededed);" parent="1" vertex="1">
          <mxGeometry x="710" y="150" width="110" height="570" as="geometry" />
        </mxCell>
        <mxCell id="lCDYun2mpixBmXI8MaTH-7" value="Consume" style="rounded=0;whiteSpace=wrap;html=1;fontSize=15;strokeColor=none;" parent="1" vertex="1">
          <mxGeometry x="723.75" y="130" width="82.5" height="30" as="geometry" />
        </mxCell>
        <mxCell id="lCDYun2mpixBmXI8MaTH-8" value="&lt;div&gt;&lt;div&gt;&lt;br&gt;&lt;/div&gt;&lt;/div&gt;" style="rounded=0;whiteSpace=wrap;html=1;strokeColor=default;fillColor=none;align=left;" parent="1" vertex="1">
          <mxGeometry x="205" y="200" width="125" height="480" as="geometry" />
        </mxCell>
        <mxCell id="lCDYun2mpixBmXI8MaTH-9" value="Broze Layer" style="rounded=0;whiteSpace=wrap;html=1;fillColor=#ffe6cc;strokeColor=#d79b00;" parent="1" vertex="1">
          <mxGeometry x="225" y="170" width="85" height="20" as="geometry" />
        </mxCell>
        <mxCell id="lCDYun2mpixBmXI8MaTH-10" value="Silver Layer" style="rounded=0;whiteSpace=wrap;html=1;fillColor=#f5f5f5;strokeColor=#666666;fontColor=#333333;" parent="1" vertex="1">
          <mxGeometry x="367.5" y="170" width="85" height="20" as="geometry" />
        </mxCell>
        <mxCell id="lCDYun2mpixBmXI8MaTH-11" value="Gold Layer" style="rounded=0;whiteSpace=wrap;html=1;fillColor=#fff2cc;strokeColor=#d6b656;" parent="1" vertex="1">
          <mxGeometry x="518.25" y="170" width="85" height="20" as="geometry" />
        </mxCell>
        <mxCell id="lCDYun2mpixBmXI8MaTH-12" value="" style="rounded=0;whiteSpace=wrap;html=1;fillColor=none;" parent="1" vertex="1">
          <mxGeometry x="345" y="200" width="130" height="480" as="geometry" />
        </mxCell>
        <mxCell id="lCDYun2mpixBmXI8MaTH-13" value="" style="rounded=0;whiteSpace=wrap;html=1;fillColor=none;" parent="1" vertex="1">
          <mxGeometry x="500" y="200" width="130" height="480" as="geometry" />
        </mxCell>
        <mxCell id="lCDYun2mpixBmXI8MaTH-14" value="" style="image;aspect=fixed;html=1;points=[];align=center;fontSize=12;image=img/lib/azure2/general/Folder_Blank.svg;" parent="1" vertex="1">
          <mxGeometry x="75.23" y="319.99999999999994" width="36.97" height="30" as="geometry" />
        </mxCell>
        <mxCell id="lCDYun2mpixBmXI8MaTH-16" value="" style="image;aspect=fixed;html=1;points=[];align=center;fontSize=12;image=img/lib/azure2/general/File.svg;" parent="1" vertex="1">
          <mxGeometry x="103.69" y="338.22999999999996" width="19.32" height="23.8" as="geometry" />
        </mxCell>
        <mxCell id="lCDYun2mpixBmXI8MaTH-17" value="&lt;b&gt;&lt;font&gt;CRM&lt;/font&gt;&lt;/b&gt;" style="text;html=1;align=center;verticalAlign=middle;whiteSpace=wrap;rounded=0;fontSize=11;" parent="1" vertex="1">
          <mxGeometry x="64.49" y="349.99999999999994" width="50" height="16.83" as="geometry" />
        </mxCell>
        <mxCell id="lCDYun2mpixBmXI8MaTH-18" value="" style="image;aspect=fixed;html=1;points=[];align=center;fontSize=12;image=img/lib/azure2/general/Folder_Blank.svg;" parent="1" vertex="1">
          <mxGeometry x="74.4" y="397.18" width="37.35" height="30.31" as="geometry" />
        </mxCell>
        <mxCell id="lCDYun2mpixBmXI8MaTH-19" value="" style="image;aspect=fixed;html=1;points=[];align=center;fontSize=12;image=img/lib/azure2/general/File.svg;" parent="1" vertex="1">
          <mxGeometry x="101.47" y="411.82" width="16.24" height="20" as="geometry" />
        </mxCell>
        <mxCell id="lCDYun2mpixBmXI8MaTH-20" value="&lt;b&gt;&lt;font&gt;ERP&lt;/font&gt;&lt;/b&gt;" style="text;html=1;align=center;verticalAlign=middle;whiteSpace=wrap;rounded=0;fontSize=11;" parent="1" vertex="1">
          <mxGeometry x="68.71000000000002" y="428.02000000000004" width="49" height="24.8" as="geometry" />
        </mxCell>
        <mxCell id="lCDYun2mpixBmXI8MaTH-28" value="&lt;b&gt;Objective type&lt;/b&gt;: CSV FIles" style="text;html=1;align=center;verticalAlign=middle;whiteSpace=wrap;rounded=0;fontSize=12;" parent="1" vertex="1">
          <mxGeometry x="50" y="490" width="90" height="30" as="geometry" />
        </mxCell>
        <mxCell id="lCDYun2mpixBmXI8MaTH-29" value="&lt;b&gt;Interface&lt;/b&gt;:&lt;div&gt;Files in Folder&lt;/div&gt;" style="text;html=1;align=center;verticalAlign=middle;whiteSpace=wrap;rounded=0;" parent="1" vertex="1">
          <mxGeometry x="53.75" y="535" width="80" height="30" as="geometry" />
        </mxCell>
        <mxCell id="lCDYun2mpixBmXI8MaTH-30" value="" style="html=1;verticalLabelPosition=bottom;align=center;labelBackgroundColor=#ffffff;verticalAlign=top;strokeWidth=2;strokeColor=#d79b00;shadow=0;dashed=0;shape=mxgraph.ios7.icons.data;fillColor=#ffe6cc;" parent="1" vertex="1">
          <mxGeometry x="250.5" y="230.00000000000003" width="34" height="46" as="geometry" />
        </mxCell>
        <mxCell id="lCDYun2mpixBmXI8MaTH-31" value="" style="html=1;verticalLabelPosition=bottom;align=center;labelBackgroundColor=#ffffff;verticalAlign=top;strokeWidth=2;strokeColor=#666666;shadow=0;dashed=0;shape=mxgraph.ios7.icons.data;fillColor=#f5f5f5;fontColor=#333333;" parent="1" vertex="1">
          <mxGeometry x="393" y="230" width="34" height="46" as="geometry" />
        </mxCell>
        <mxCell id="lCDYun2mpixBmXI8MaTH-32" value="" style="html=1;verticalLabelPosition=bottom;align=center;labelBackgroundColor=#ffffff;verticalAlign=top;strokeWidth=2;strokeColor=#d6b656;shadow=0;dashed=0;shape=mxgraph.ios7.icons.data;fillColor=#fff2cc;" parent="1" vertex="1">
          <mxGeometry x="548" y="230.00000000000003" width="34" height="46" as="geometry" />
        </mxCell>
        <mxCell id="lCDYun2mpixBmXI8MaTH-33" value="" style="shape=flexArrow;endArrow=classic;html=1;rounded=0;fillColor=#dae8fc;strokeColor=#6c8ebf;" parent="1" edge="1">
          <mxGeometry width="50" height="50" relative="1" as="geometry">
            <mxPoint x="150" y="297.1" as="sourcePoint" />
            <mxPoint x="200" y="297" as="targetPoint" />
          </mxGeometry>
        </mxCell>
        <mxCell id="lCDYun2mpixBmXI8MaTH-34" value="" style="shape=flexArrow;endArrow=classic;html=1;rounded=0;fillColor=#dae8fc;strokeColor=#6c8ebf;" parent="1" edge="1">
          <mxGeometry width="50" height="50" relative="1" as="geometry">
            <mxPoint x="325" y="298" as="sourcePoint" />
            <mxPoint x="367.5" y="298.4" as="targetPoint" />
          </mxGeometry>
        </mxCell>
        <mxCell id="lCDYun2mpixBmXI8MaTH-35" value="" style="shape=flexArrow;endArrow=classic;html=1;rounded=0;fillColor=#dae8fc;strokeColor=#6c8ebf;entryX=-0.003;entryY=0.263;entryDx=0;entryDy=0;entryPerimeter=0;width=11;endSize=6.32;" parent="1" target="lCDYun2mpixBmXI8MaTH-6" edge="1">
          <mxGeometry width="50" height="50" relative="1" as="geometry">
            <mxPoint x="652" y="300" as="sourcePoint" />
            <mxPoint x="700" y="294" as="targetPoint" />
          </mxGeometry>
        </mxCell>
        <mxCell id="lCDYun2mpixBmXI8MaTH-36" value="" style="shape=flexArrow;endArrow=classic;html=1;rounded=0;fillColor=#dae8fc;strokeColor=#6c8ebf;" parent="1" edge="1">
          <mxGeometry width="50" height="50" relative="1" as="geometry">
            <mxPoint x="465" y="298.20000000000005" as="sourcePoint" />
            <mxPoint x="510" y="298" as="targetPoint" />
          </mxGeometry>
        </mxCell>
        <mxCell id="lCDYun2mpixBmXI8MaTH-37" value="Raw Data" style="text;html=1;align=center;verticalAlign=middle;whiteSpace=wrap;rounded=0;" parent="1" vertex="1">
          <mxGeometry x="238.5" y="280" width="58" height="28" as="geometry" />
        </mxCell>
        <mxCell id="lCDYun2mpixBmXI8MaTH-38" value="Cleaned, Standard Data" style="text;html=1;align=center;verticalAlign=middle;whiteSpace=wrap;rounded=0;" parent="1" vertex="1">
          <mxGeometry x="377.5" y="292" width="70" height="28" as="geometry" />
        </mxCell>
        <mxCell id="lCDYun2mpixBmXI8MaTH-39" value="Business-ready Data" style="text;html=1;align=center;verticalAlign=middle;whiteSpace=wrap;rounded=0;" parent="1" vertex="1">
          <mxGeometry x="530" y="287" width="66.5" height="38" as="geometry" />
        </mxCell>
        <mxCell id="lCDYun2mpixBmXI8MaTH-41" value="" style="endArrow=none;html=1;rounded=0;entryX=1.043;entryY=0.347;entryDx=0;entryDy=0;entryPerimeter=0;fontColor=light-dark(#908E8E,#EDEDED);strokeColor=#3A3A3A;" parent="1" edge="1">
          <mxGeometry width="50" height="50" relative="1" as="geometry">
            <mxPoint x="65.43" y="470" as="sourcePoint" />
            <mxPoint x="124.56500000000023" y="470.22" as="targetPoint" />
          </mxGeometry>
        </mxCell>
        <mxCell id="lCDYun2mpixBmXI8MaTH-42" value="" style="endArrow=none;html=1;rounded=0;entryX=1.043;entryY=0.347;entryDx=0;entryDy=0;entryPerimeter=0;" parent="1" edge="1">
          <mxGeometry width="50" height="50" relative="1" as="geometry">
            <mxPoint x="237.84000000000003" y="308" as="sourcePoint" />
            <mxPoint x="296.4950000000002" y="308.22" as="targetPoint" />
          </mxGeometry>
        </mxCell>
        <mxCell id="lCDYun2mpixBmXI8MaTH-43" value="" style="endArrow=none;html=1;rounded=0;entryX=1.043;entryY=0.347;entryDx=0;entryDy=0;entryPerimeter=0;" parent="1" edge="1">
          <mxGeometry width="50" height="50" relative="1" as="geometry">
            <mxPoint x="380.67" y="331.4" as="sourcePoint" />
            <mxPoint x="439.32500000000016" y="331.62" as="targetPoint" />
          </mxGeometry>
        </mxCell>
        <mxCell id="lCDYun2mpixBmXI8MaTH-44" value="" style="endArrow=none;html=1;rounded=0;entryX=1.043;entryY=0.347;entryDx=0;entryDy=0;entryPerimeter=0;" parent="1" edge="1">
          <mxGeometry width="50" height="50" relative="1" as="geometry">
            <mxPoint x="533.92" y="325.00000000000006" as="sourcePoint" />
            <mxPoint x="592.5750000000003" y="325.2200000000001" as="targetPoint" />
          </mxGeometry>
        </mxCell>
        <mxCell id="lCDYun2mpixBmXI8MaTH-46" value="&lt;b&gt;Objective type&lt;/b&gt;: Table" style="text;html=1;align=center;verticalAlign=middle;whiteSpace=wrap;rounded=0;fontSize=12;" parent="1" vertex="1">
          <mxGeometry x="220" y="320" width="90" height="30" as="geometry" />
        </mxCell>
        <mxCell id="lCDYun2mpixBmXI8MaTH-47" value="&lt;b&gt;Objective type&lt;/b&gt;: CSV FIles" style="text;html=1;align=center;verticalAlign=middle;whiteSpace=wrap;rounded=0;fontSize=12;" parent="1" vertex="1">
          <mxGeometry x="367.5" y="343.8" width="90" height="30" as="geometry" />
        </mxCell>
        <mxCell id="lCDYun2mpixBmXI8MaTH-48" value="&lt;b&gt;Objective type&lt;/b&gt;: CSV FIles" style="text;html=1;align=center;verticalAlign=middle;whiteSpace=wrap;rounded=0;fontSize=12;" parent="1" vertex="1">
          <mxGeometry x="518.25" y="339.16" width="90" height="30" as="geometry" />
        </mxCell>
        <mxCell id="lCDYun2mpixBmXI8MaTH-51" value="Load:" style="text;html=1;align=left;verticalAlign=middle;whiteSpace=wrap;rounded=0;fontSize=11;" parent="1" vertex="1">
          <mxGeometry x="212.5" y="350.84" width="60" height="30" as="geometry" />
        </mxCell>
        <mxCell id="lCDYun2mpixBmXI8MaTH-52" value="&lt;ul&gt;&lt;li&gt;Batch processing&lt;/li&gt;&lt;li&gt;Full load&lt;/li&gt;&lt;li&gt;Truncate &amp;amp; Insert&lt;/li&gt;&lt;/ul&gt;" style="text;html=1;align=left;verticalAlign=middle;whiteSpace=wrap;rounded=0;fontSize=11;" parent="1" vertex="1">
          <mxGeometry x="199" y="390" width="97.5" height="30" as="geometry" />
        </mxCell>
        <mxCell id="lCDYun2mpixBmXI8MaTH-54" value="No &lt;b&gt;Transformation&lt;/b&gt;" style="text;html=1;align=left;verticalAlign=middle;whiteSpace=wrap;rounded=0;" parent="1" vertex="1">
          <mxGeometry x="212.5" y="460" width="90" height="30" as="geometry" />
        </mxCell>
        <mxCell id="lCDYun2mpixBmXI8MaTH-55" value="&lt;b&gt;Data Model&lt;/b&gt;:&lt;div&gt;None (as is)&lt;/div&gt;" style="text;html=1;align=left;verticalAlign=middle;whiteSpace=wrap;rounded=0;" parent="1" vertex="1">
          <mxGeometry x="212.5" y="505" width="91.25" height="30" as="geometry" />
        </mxCell>
        <mxCell id="lCDYun2mpixBmXI8MaTH-56" value="Load:" style="text;html=1;align=left;verticalAlign=middle;whiteSpace=wrap;rounded=0;fontSize=11;" parent="1" vertex="1">
          <mxGeometry x="355" y="369.16" width="60" height="30" as="geometry" />
        </mxCell>
        <mxCell id="lCDYun2mpixBmXI8MaTH-57" value="&lt;ul&gt;&lt;li&gt;Batch processing&lt;/li&gt;&lt;li&gt;Full load&lt;/li&gt;&lt;li&gt;Truncate &amp;amp; Insert&lt;/li&gt;&lt;/ul&gt;" style="text;html=1;align=left;verticalAlign=middle;whiteSpace=wrap;rounded=0;fontSize=11;" parent="1" vertex="1">
          <mxGeometry x="345" y="410" width="97.5" height="30" as="geometry" />
        </mxCell>
        <mxCell id="lCDYun2mpixBmXI8MaTH-58" value="&lt;b&gt;Transformations&lt;/b&gt;:" style="text;html=1;align=left;verticalAlign=middle;whiteSpace=wrap;rounded=0;" parent="1" vertex="1">
          <mxGeometry x="355" y="460" width="60" height="30" as="geometry" />
        </mxCell>
        <mxCell id="lCDYun2mpixBmXI8MaTH-59" value="&lt;ul&gt;&lt;li&gt;Data cleansing&lt;/li&gt;&lt;li&gt;Data Standardization&lt;/li&gt;&lt;li&gt;Data Normalization&lt;/li&gt;&lt;li&gt;Derived Columns&lt;/li&gt;&lt;li&gt;Data Enrichment&lt;/li&gt;&lt;/ul&gt;" style="text;html=1;align=left;verticalAlign=middle;whiteSpace=wrap;rounded=0;fontSize=10;" parent="1" vertex="1">
          <mxGeometry x="330" y="530" width="60" height="30" as="geometry" />
        </mxCell>
        <mxCell id="lCDYun2mpixBmXI8MaTH-63" value="&lt;b&gt;Data Model&lt;/b&gt;:&lt;div&gt;None (as is)&lt;/div&gt;" style="text;html=1;align=left;verticalAlign=middle;whiteSpace=wrap;rounded=0;" parent="1" vertex="1">
          <mxGeometry x="353.75" y="610" width="91.25" height="30" as="geometry" />
        </mxCell>
        <mxCell id="Dm7Q_Xy-6k9fIlEz08zD-1" value="No &lt;b&gt;Load&lt;/b&gt;" style="text;html=1;align=center;verticalAlign=middle;whiteSpace=wrap;rounded=0;" parent="1" vertex="1">
          <mxGeometry x="533.25" y="381.82" width="60" height="30" as="geometry" />
        </mxCell>
        <mxCell id="Dm7Q_Xy-6k9fIlEz08zD-2" value="&lt;b&gt;Tranformations&lt;/b&gt;:&lt;div&gt;&lt;ul&gt;&lt;li style=&quot;text-align: left;&quot;&gt;Data Integration&lt;/li&gt;&lt;li style=&quot;text-align: left;&quot;&gt;Aggregations&lt;/li&gt;&lt;li style=&quot;text-align: left;&quot;&gt;Business Logics&lt;/li&gt;&lt;/ul&gt;&lt;/div&gt;" style="text;html=1;align=center;verticalAlign=middle;whiteSpace=wrap;rounded=0;" parent="1" vertex="1">
          <mxGeometry x="490" y="460" width="128.25" height="30" as="geometry" />
        </mxCell>
        <mxCell id="Dm7Q_Xy-6k9fIlEz08zD-4" value="&lt;b&gt;Data Model&lt;/b&gt;:&lt;div&gt;&lt;ul&gt;&lt;li&gt;Star Schema&lt;/li&gt;&lt;li&gt;Flat table&lt;/li&gt;&lt;li&gt;Aggregated Table&lt;/li&gt;&lt;/ul&gt;&lt;/div&gt;" style="text;html=1;align=left;verticalAlign=middle;whiteSpace=wrap;rounded=0;fontSize=12;" parent="1" vertex="1">
          <mxGeometry x="510" y="560" width="130" height="30" as="geometry" />
        </mxCell>
        <mxCell id="Dm7Q_Xy-6k9fIlEz08zD-5" value="" style="image;aspect=fixed;html=1;points=[];align=center;fontSize=12;image=img/lib/azure2/analytics/Power_BI_Embedded.svg;" parent="1" vertex="1">
          <mxGeometry x="743.25" y="240" width="43.5" height="58" as="geometry" />
        </mxCell>
        <mxCell id="Dm7Q_Xy-6k9fIlEz08zD-6" value="BI &amp;amp; Reporting" style="text;html=1;align=center;verticalAlign=middle;whiteSpace=wrap;rounded=0;" parent="1" vertex="1">
          <mxGeometry x="723.75" y="298" width="85" height="30" as="geometry" />
        </mxCell>
        <mxCell id="Dm7Q_Xy-6k9fIlEz08zD-7" value="" style="image;sketch=0;aspect=fixed;html=1;points=[];align=center;fontSize=12;image=img/lib/mscae/SQL_Database_generic.svg;" parent="1" vertex="1">
          <mxGeometry x="748.75" y="369.16" width="38" height="50" as="geometry" />
        </mxCell>
        <mxCell id="Dm7Q_Xy-6k9fIlEz08zD-8" value="Ad-Hoc&lt;div&gt;SQL Queries&lt;/div&gt;" style="text;html=1;align=center;verticalAlign=middle;whiteSpace=wrap;rounded=0;" parent="1" vertex="1">
          <mxGeometry x="731.63" y="428.02000000000004" width="72.25" height="30" as="geometry" />
        </mxCell>
        <mxCell id="Dm7Q_Xy-6k9fIlEz08zD-9" value="" style="outlineConnect=0;dashed=0;verticalLabelPosition=bottom;verticalAlign=top;align=center;html=1;shape=mxgraph.aws3.machine_learning;fillColor=#2E73B8;gradientColor=none;" parent="1" vertex="1">
          <mxGeometry x="734.76" y="505" width="66" height="73" as="geometry" />
        </mxCell>
        <mxCell id="Dm7Q_Xy-6k9fIlEz08zD-10" value="Machine Learning" style="text;html=1;align=center;verticalAlign=middle;whiteSpace=wrap;rounded=0;" parent="1" vertex="1">
          <mxGeometry x="740.76" y="590" width="60" height="30" as="geometry" />
        </mxCell>
      </root>
    </mxGraphModel>
  </diagram>
</mxfile>
